<?xml version="1.0" encoding="utf-8"?>
<!-- Generator: Adobe Illustrator 25.2.3, SVG Export Plug-In . SVG Version: 6.00 Build 0)  -->
<svg version="1.1" id="Calque_1" xmlns="http://www.w3.org/2000/svg" xmlns:xlink="http://www.w3.org/1999/xlink" x="0px" y="0px"
	 viewBox="0 0 264.86 283.46" style="enable-background:new 0 0 264.86 283.46;" xml:space="preserve">
<style type="text/css">
	.st0{fill:#FDFDFD;}
</style>
<g>
	<g>
		<path class="st0" d="M43.87,112.74l-1.44-0.24c3.26-26.72,34.65-79.46,83.11-85.62v-0.01l0.66-0.15c5.73-0.57,11.67-0.57,17.41,0
			l0.66,0.07v0.1c48.46,6.15,79.85,58.89,83.11,85.62l-1.44,0.24c-2.42-11.08-39.78-20.33-85.06-21.06c-3.95-0.06-7.99-0.06-11.93,0
			C83.66,92.41,46.3,101.66,43.87,112.74z M126.91,28.11l-0.55,0.14c-45.63,5.39-76.03,52.77-81.77,80.19
			c8.84-10.12,42.22-17.55,84.33-18.23c3.95-0.06,8.01-0.06,11.98,0c42.1,0.68,75.48,8.11,84.32,18.23
			c-5.74-27.42-36.14-74.8-81.77-80.19l-0.65-0.15C137.56,27.63,132.16,27.63,126.91,28.11z"/>
	</g>
	<g>
		<path class="st0" d="M94.86,124.6c0.03,3.28,0.03,6.67-0.06,9.99c-22.13-2.63-39.38-7.4-47.46-13.25
			c-3.25-2.35-5.01-4.86-5.01-7.49c0.04-0.42,0.09-0.84,0.14-1.27c2.53-11.6,39.49-20.9,85.76-21.64
			c-39.71,0.72-70.99,8.53-70.99,18.07c0,4.76,7.79,9.09,20.54,12.32C82.76,122.61,88.52,123.71,94.86,124.6z"/>
	</g>
	<g>
		<path class="st0" d="M226.09,113.85c0,2.62-1.76,5.14-5,7.49c-7.98,5.78-24.97,10.52-46.78,13.17c-0.06-2.06-0.08-4.14-0.08-6.2
			c0-1.29,0.01-2.56,0.02-3.82c6.07-0.86,11.58-1.92,16.38-3.15c12.75-3.23,20.54-7.56,20.54-12.32c0-9.54-31.28-17.35-71-18.07
			c46.29,0.74,83.24,10.04,85.77,21.64C226,113.01,226.05,113.44,226.09,113.85z"/>
	</g>
	<g>
		<path class="st0" d="M128.86,253.81l-1.58-0.23c-24.43-3.52-39.36-22.05-41.49-38.54c-1.64-22.14,4.85-38.23,9.58-49.99
			c1.7-4.21,3.17-7.85,3.96-11.02c2.66-10.66,2.12-29.58,1.75-42.1c-0.05-1.59-0.09-3.06-0.12-4.38l-0.01-0.63l0.62-0.11
			c9.76-1.73,20.88-2.56,32.99-2.46c12.13-0.1,23.22,0.72,32.98,2.46l0.62,0.11l-0.01,0.63c-0.03,1.32-0.07,2.8-0.12,4.38
			c-0.36,12.52-0.91,31.44,1.75,42.1c0.79,3.16,2.26,6.8,3.96,11.02c4.74,11.75,11.23,27.85,9.59,49.95l0,0.04
			c-1.7,13.15-12.09,29.41-31.49,36.11l-0.52,0.18l-0.32-0.45c-6.91-9.94-18.2-34.13-20.4-87.48c-0.15,1.37-0.31,2.78-0.48,4.23
			c-2.29,20.15-5.43,47.75,2.37,70.55l1.22,3.55l-2.46-2.84c-9.24-10.66-17.66-28.18-23.3-48.43c-0.95,11.97,5.63,39.39,20.06,61.99
			L128.86,253.81z M102.45,108.15c0.03,1.15,0.07,2.41,0.1,3.75c0.37,12.6,0.92,31.65-1.79,42.5c-0.82,3.26-2.3,6.94-4.02,11.21
			c-4.69,11.62-11.1,27.53-9.49,49.29c2.01,15.54,15.89,33.02,38.66,36.98c-15.75-25.39-21.7-55.28-18.83-65.03l0.74-2.53l0.66,2.55
			c5.11,19.6,12.84,36.86,21.47,48.12c-6.43-22.33-3.47-48.3-1.29-67.53c0.84-7.43,1.57-13.84,1.57-18.51l1.46-0.01
			c0.57,62.24,12.74,89.66,20.18,100.64c18.46-6.6,28.36-22.13,29.99-34.71c1.61-21.75-4.8-37.66-9.49-49.27
			c-1.72-4.26-3.2-7.95-4.02-11.21c-2.71-10.85-2.16-29.9-1.8-42.5c0.04-1.34,0.07-2.59,0.1-3.75c-9.52-1.64-20.31-2.43-32.11-2.33
			C122.78,105.73,111.97,106.51,102.45,108.15z"/>
	</g>
</g>
</svg>
