<?xml version="1.0" encoding="utf-8"?>
<!-- Generator: Adobe Illustrator 25.2.3, SVG Export Plug-In . SVG Version: 6.00 Build 0)  -->
<svg version="1.1" id="Calque_1" xmlns="http://www.w3.org/2000/svg" xmlns:xlink="http://www.w3.org/1999/xlink" x="0px" y="0px"
	 viewBox="0 0 264.86 283.46" style="enable-background:new 0 0 264.86 283.46;" xml:space="preserve">
<style type="text/css">
	.st0{fill:#EDDB8D;}
	.st1{fill:#2C4720;}
	.st2{fill:none;stroke:#2C4720;stroke-width:5;stroke-miterlimit:10;}
</style>
<g>
	<circle class="st0" cx="131.79" cy="143.25" r="122.8"/>
	<g>
		<path class="st1" d="M199.5,86.77c-1.73-7.93-26.99-14.28-58.62-14.79c-1.35-0.02-2.71-0.03-4.09-0.03s-2.73,0.01-4.08,0.03
			c-31.64,0.51-56.89,6.86-58.62,14.79c2.35-19.26,24.2-54.28,56.81-58.13v-0.06c1.93-0.19,3.89-0.29,5.9-0.29
			c2.01,0,3.97,0.1,5.9,0.29v0.06C175.31,32.48,197.15,67.51,199.5,86.77z"/>
		<path class="st1" d="M109.43,94.98c0.02,2.24,0.02,4.56-0.04,6.83c-15.13-1.8-26.92-5.06-32.44-9.06
			c-2.22-1.61-3.42-3.32-3.42-5.12c0.03-0.28,0.06-0.57,0.09-0.87c1.73-7.93,26.99-14.28,58.62-14.79
			c-27.14,0.5-48.52,5.83-48.52,12.35c0,3.26,5.32,6.22,14.04,8.42C101.16,93.62,105.09,94.37,109.43,94.98z"/>
		<path class="st1" d="M199.12,87.63c0,1.79-1.2,3.51-3.42,5.12c-5.46,3.95-17.07,7.19-31.97,9c-0.04-1.41-0.05-2.83-0.05-4.24
			c0-0.88,0.01-1.75,0.01-2.61c4.15-0.59,7.91-1.31,11.2-2.15c8.71-2.21,14.04-5.17,14.04-8.42c0-6.52-21.38-11.86-48.52-12.35
			c31.64,0.51,56.89,6.86,58.62,14.79C199.06,87.06,199.09,87.35,199.12,87.63z"/>
		<path class="st1" d="M169.4,156.73c-1.22,9.42-8.67,19.95-21.19,24.27c-4.99-7.19-13.7-25.91-14.1-69.38
			c0,11.89-6.8,39.63,0.56,61.15c-7.36-8.49-13.02-22.08-16.41-35.1c-1.83,6.22,2.02,27.14,13.4,44.97
			c-16.57-2.38-26.51-14.9-27.93-25.91c-1.51-20.38,7.17-33.22,9.25-41.51c2.07-8.3,1.32-23.98,1.13-31.9
			c7.59-1.35,15.46-1.73,22.46-1.67c7-0.06,14.87,0.32,22.46,1.67c-0.19,7.93-0.94,23.61,1.13,31.9
			C162.23,123.51,170.91,136.35,169.4,156.73z"/>
	</g>
	<path class="st1" d="M251.69,168.51l-78.39,16.91l-0.03,0.01l-0.03,0.02c-21.74,5.49-52.38,20.25-76.11,76.37
		c10.33,2.76,21.18,4.23,32.38,4.23C189.17,266.05,239.08,224.35,251.69,168.51z"/>
</g>
<circle class="st2" cx="131.31" cy="142.76" r="123.28"/>
</svg>
