<?xml version="1.0" encoding="utf-8"?>
<!-- Generator: Adobe Illustrator 25.2.3, SVG Export Plug-In . SVG Version: 6.00 Build 0)  -->
<svg version="1.1" id="Calque_1" xmlns="http://www.w3.org/2000/svg" xmlns:xlink="http://www.w3.org/1999/xlink" x="0px" y="0px"
	 viewBox="0 0 336.76 98.53" style="enable-background:new 0 0 336.76 98.53;" xml:space="preserve">
<style type="text/css">
	.st0{fill:#FFFFFF;}
	.st1{fill:#EDDB8D;}
	.st2{fill:#2D4620;}
</style>
<g>
	<path class="st0" d="M124.34,75.49c-5.67,0-8.9-3.23-8.9-8.9V44.78c0-5.67,3.23-8.9,8.9-8.9h3.89c5.67,0,8.9,3.23,8.9,8.9v6.45
		h-7.68v-5.79c0-1.78-1-2.78-2.78-2.78h-0.78c-1.78,0-2.78,1-2.78,2.78v20.47c0,1.78,1,2.78,2.78,2.78h0.78c1.78,0,2.78-1,2.78-2.78
		v-7.45h7.68v8.12c0,5.67-3.23,8.9-8.9,8.9H124.34z"/>
	<path class="st0" d="M154.6,75.16V58.25h-6.34v16.91h-7.68V36.22h7.68v15.24h6.34V36.22h7.68v38.94H154.6z"/>
	<path class="st0" d="M181.75,75.16l-1.17-7.18h-7.07l-1.11,7.18h-7.68l7.34-38.94h10.01l7.34,38.94H181.75z M177.08,44.78
		l-2.73,16.41h5.45L177.08,44.78z"/>
	<path class="st0" d="M219.91,75.16V46.01l-6.62,29.15h-7.12l-6.62-29.15v29.15h-7.68V36.22h12.18l5.67,25.59l5.67-25.59h12.18
		v38.94H219.91z"/>
	<path class="st0" d="M239.71,59.36v15.8h-7.68V36.22h12.8c5.67,0,8.9,3.23,8.9,8.9v5.34c0,5.67-3.23,8.9-8.9,8.9H239.71z
		 M246.06,49.79v-4.01c0-1.78-1-2.78-2.78-2.78h-3.56v9.57h3.56C245.05,52.57,246.06,51.57,246.06,49.79z"/>
	<path class="st0" d="M257.63,75.16V36.22h7.68v38.94H257.63z"/>
	<path class="st0" d="M278.1,75.49c-5.67,0-8.9-3.23-8.9-8.9v-5.9h7.68v5.67c0,1.78,1,2.78,2.78,2.78h0.78c1.78,0,2.78-1,2.78-2.78
		V62.7c0-1.89-0.56-3.06-2.45-3.78l-6.56-2.61c-3.89-1.56-5.01-3.89-5.01-7.51v-4.01c0-5.67,3.23-8.9,8.9-8.9h3.89
		c5.67,0,8.9,3.23,8.9,8.9v4.23h-7.68v-4.01c0-1.78-1-2.78-2.78-2.78h-0.78c-1.78,0-2.78,1-2.78,2.78v2c0,1.78,0.56,3.06,2.45,3.78
		l6.56,2.61c3.89,1.56,5.01,3.89,5.01,7.51v5.67c0,5.67-3.23,8.9-8.9,8.9H278.1z"/>
	<path class="st0" d="M303.13,75.49c-5.67,0-8.9-3.23-8.9-8.9V44.78c0-5.67,3.23-8.9,8.9-8.9h3.89c5.67,0,8.9,3.23,8.9,8.9v21.81
		c0,5.67-3.23,8.9-8.9,8.9H303.13z M308.25,65.92V45.45c0-1.78-1-2.78-2.78-2.78h-0.78c-1.78,0-2.78,1-2.78,2.78v20.47
		c0,1.78,1,2.78,2.78,2.78h0.78C307.25,68.7,308.25,67.7,308.25,65.92z"/>
</g>
<g>
	<circle class="st1" cx="59.84" cy="53.75" r="33.12"/>
	<g>
		<path class="st2" d="M77.92,38.74c-0.47-2.16-7.37-3.9-16.01-4.04c-0.37-0.01-0.74-0.01-1.12-0.01c-0.38,0-0.75,0-1.11,0.01
			c-8.64,0.14-15.54,1.87-16.01,4.04c0.64-5.26,6.61-14.82,15.51-15.88v-0.02c0.53-0.05,1.06-0.08,1.61-0.08
			c0.55,0,1.08,0.03,1.61,0.08v0.02C71.31,23.92,77.28,33.48,77.92,38.74z"/>
		<path class="st2" d="M53.32,40.98c0.01,0.61,0.01,1.24-0.01,1.87c-4.13-0.49-7.35-1.38-8.86-2.47c-0.61-0.44-0.93-0.91-0.93-1.4
			c0.01-0.08,0.02-0.16,0.03-0.24c0.47-2.16,7.37-3.9,16.01-4.04c-7.41,0.14-13.25,1.59-13.25,3.37c0,0.89,1.45,1.7,3.83,2.3
			C51.07,40.61,52.14,40.82,53.32,40.98z"/>
		<path class="st2" d="M77.82,38.98c0,0.49-0.33,0.96-0.93,1.4c-1.49,1.08-4.66,1.96-8.73,2.46c-0.01-0.38-0.01-0.77-0.01-1.16
			c0-0.24,0-0.48,0-0.71c1.13-0.16,2.16-0.36,3.06-0.59c2.38-0.6,3.83-1.41,3.83-2.3c0-1.78-5.84-3.24-13.25-3.37
			c8.64,0.14,15.54,1.87,16.01,4.04C77.8,38.82,77.81,38.9,77.82,38.98z"/>
		<path class="st2" d="M69.7,57.85c-0.33,2.57-2.37,5.45-5.79,6.63c-1.36-1.96-3.74-7.08-3.85-18.95c0,3.25-1.86,10.82,0.15,16.7
			c-2.01-2.32-3.56-6.03-4.48-9.59c-0.5,1.7,0.55,7.41,3.66,12.28c-4.53-0.65-7.24-4.07-7.63-7.08c-0.41-5.57,1.96-9.07,2.53-11.34
			c0.57-2.27,0.36-6.55,0.31-8.71c2.07-0.37,4.22-0.47,6.13-0.46c1.91-0.02,4.06,0.09,6.13,0.46c-0.05,2.16-0.26,6.45,0.31,8.71
			C67.74,48.78,70.11,52.28,69.7,57.85z"/>
	</g>
	<path class="st2" d="M92.18,61.07l-20.74,4.47l-0.01,0l-0.01,0C65.66,67,57.56,70.9,51.28,85.75c2.73,0.73,5.61,1.12,8.57,1.12
		C75.63,86.88,88.84,75.84,92.18,61.07z"/>
</g>
</svg>
